#N canvas 374 245 848 479 12;
#X declare -path ../jwy-pd-lib;
#X obj 13 43 declare -path ../jwy-pd-lib;
#X text 12 19 import jwy pd library one directory up (seperate repo);
#X obj 129 301 stereo-out-safe;
#X obj 129 230 catch~ outL;
#X obj 195 259 catch~ outR;
#N canvas 178 107 1262 734 faust-additive 0;
#X obj 594 634 throw~ outR;
#X obj 185 154 hsl 162 19 0 127 0 0 empty empty empty -2 -10 0 12 #fcfcfc #000000 #000000 0 1;
#X obj 185 196 / 127;
#X obj 358 216 hsl 162 19 0 127 0 0 empty empty empty -2 -10 0 12 #fcfcfc #000000 #000000 0 1;
#X obj 355 240 / 127;
#X obj 70 146 pack 0 0 0;
#X obj 65 90 poly 4 1, f 10;
#X obj 63 25 r notes-2-faust;
#X obj 95 481 bng 19 250 50 0 empty empty empty 0 -10 0 12 #fcfcfc #000000 #000000;
#X obj 49 399 r ticks;
#X msg 240 509 captureTime \$1;
#X obj 49 423 sel 0;
#X obj 18 516 i;
#X obj 60 523 + 1;
#X obj 61 583 t b;
#X obj 61 607 i 0;
#X obj 60 551 moses 3;
#X floatatom 250 450 5 0 0 0 - - - 0;
#X msg 192 230 all filterFreq \$1;
#X msg 401 247 all filterRez \$1;
#X msg 238 48 all port 0;
#X obj 721 137 list prepend all;
#X obj 721 161 list trim;
#X obj 721 185 s mess-2-organ12;
#X obj 344 339 r mess-2-organ12;
#X obj 568 595 *~ 1;
#X obj 172 657 throw~ outL;
#X obj 129 624 *~ 1;
#X obj 373 461 j-record-stereo~ stemRec faust-add;
#X obj 287 691 j-record-stereo~ stemRec faust-add-delay;
#X msg 560 349 all transpose -12;
#X obj 102 118 + 0;
#X floatatom 185 96 5 0 0 0 - - - 0;
#X floatatom 296 488 5 0 0 0 - - - 0;
#X obj 435 128 list prepend all;
#X obj 435 152 list trim;
#X obj 435 176 s mess-2-organ12;
#X msg 330 52 freqEnvA 0.001;
#X msg 494 18 freqEnvS 0;
#X obj 179 418 *~;
#X obj 544 224 inlet;
#X obj 544 248 / 127;
#X obj 544 272 *;
#X obj 543 306 lop~ 5;
#X obj 476 398 *~;
#X msg 597 77 r7 0.1;
#X msg 169 65 -26;
#X msg 205 67 -21;
#X msg 124 63 -31;
#X msg 804 51 a\$1 \$2 \, d\$1 \$3 \, s\$1 \$4 \, r\$1 \$5 \, idx\$1 \$6 \, amp\$1 \$7 \, fEnvAmt\$1 \$8;
#X msg 283 91 freqEnvD 0.012;
#X msg 883 -3 2 0.01 0.1 0.5 2 2 1 0.5;
#X msg 882 21 3 0.01 0.1 0.5 2 2.01 1 0.5;
#X msg 337 427 454;
#X msg 289 427 222;
#X msg 255 413 111;
#X msg 392 414 750;
#X msg 352 401 425;
#X obj 0 590 sel 0 2;
#X obj 75 305 stripnote;
#X obj 906 245 t a b, f 6;
#X obj 953 275 i 0;
#X obj 906 301 until;
#X obj 906 269 max 1;
#X obj 906 325 i;
#X obj 944 331 + 1;
#X msg 905 214 12;
#X obj 906 461 list prepend all;
#X obj 906 485 list trim;
#X obj 905 525 s mess-2-organ12;
#X obj 904 354 t a a;
#X obj 905 383 pack 0 4;
#X msg 903 423 d\$1 \$2;
#X obj 569 145 r filter-point;
#X obj 569 193 line 1 1;
#X obj 991 377 pack 0 0;
#X obj 1030 214 + 1;
#X msg 990 412 idx\$1 \$2;
#X obj 998 185 t a a;
#X obj 1112 256 + 1;
#X obj 1080 230 t a a;
#X obj 1112 283 swap 1;
#X obj 1112 307 /;
#X obj 1076 401 pack 0 0.1;
#X obj 1158 426 print huh;
#X msg 1075 436 amp\$1 \$2;
#X obj 1112 355 min 1;
#X msg 785 452 a\$1 1;
#X obj 355 264 * 200;
#X obj 163 575 new-del-freeze~ 750 5 500 1 1000 5000 90;
#X obj 492 536 new-del-freeze~ 750 5 500 1 1000 5000 90;
#X obj 296 464 * 0.333333;
#X msg 1090 -6 4 0.01 0.1 0.15 1 5.01 1 0.5;
#X msg 1089 18 5 0.01 0.1 0.15 1 6.016 1 0.5;
#X msg 484 94 freqDepth -12;
#X obj 757 699 throw~ reverbL;
#X obj 775 668 throw~ reverbR;
#X obj 776 641 *~;
#X obj 743 666 *~;
#X obj 792 584 lop~ 5;
#X obj 790 502 hsl 162 19 0 127 0 0 empty empty empty -2 -10 0 12 #fcfcfc #000000 #000000 0 1;
#X obj 787 526 / 127;
#X obj 787 550 *;
#X obj 1112 331 pow 2;
#X msg 837 420 s\$1 0.25;
#X msg 968 140 idx\$1 \$2;
#X msg 680 37 ampLFOrate \$1;
#X floatatom 683 8 5 0 0 0 - - - 0;
#X obj 710 291 pack 0 0;
#X obj 706 231 t a a;
#X msg 804 220 fEnvAmt\$1 0.9;
#X msg 706 333 lfoPhase\$1 \$2;
#X msg 1078 510 lfoAmt\$1 1;
#X obj 761 256 * 0.25;
#X msg 775 421 r\$1 4;
#X msg 487 54 freqDepth 48;
#X msg 336 19 freqEnvR 0.02;
#X obj 155 378 clone -s 1 4 duck-voice-stereo~ organ_12-voice~;
#X msg 969 107 0 0.75 \, 1 1 \, 2 3 \, 3 5 \, 4 12;
#X obj 869 155 r set-params;
#X obj 333 180 r set-params;
#X msg 333 204 60;
#X connect 1 0 2 0;
#X connect 2 0 18 0;
#X connect 3 0 4 0;
#X connect 4 0 88 0;
#X connect 5 0 59 0;
#X connect 5 0 117 0;
#X connect 6 0 5 0;
#X connect 6 1 31 0;
#X connect 6 2 5 2;
#X connect 7 0 6 0;
#X connect 8 0 89 0;
#X connect 9 0 11 0;
#X connect 10 0 89 0;
#X connect 10 0 90 0;
#X connect 11 0 12 0;
#X connect 12 0 13 0;
#X connect 12 0 58 0;
#X connect 13 0 16 0;
#X connect 14 0 15 0;
#X connect 15 0 12 1;
#X connect 16 0 12 1;
#X connect 16 1 14 0;
#X connect 17 0 10 0;
#X connect 18 0 117 1;
#X connect 19 0 117 1;
#X connect 20 0 117 1;
#X connect 21 0 22 0;
#X connect 22 0 23 0;
#X connect 24 0 117 1;
#X connect 25 0 0 0;
#X connect 25 0 97 0;
#X connect 27 0 26 0;
#X connect 27 0 98 0;
#X connect 31 0 5 1;
#X connect 32 0 31 1;
#X connect 34 0 35 0;
#X connect 35 0 36 0;
#X connect 37 0 34 0;
#X connect 38 0 34 0;
#X connect 39 0 27 0;
#X connect 39 0 28 0;
#X connect 39 0 89 0;
#X connect 40 0 41 0;
#X connect 41 0 42 0;
#X connect 41 0 42 1;
#X connect 42 0 43 0;
#X connect 43 0 39 1;
#X connect 43 0 44 1;
#X connect 44 0 25 0;
#X connect 44 0 28 1;
#X connect 44 0 90 0;
#X connect 45 0 21 0;
#X connect 46 0 32 0;
#X connect 47 0 32 0;
#X connect 48 0 32 0;
#X connect 49 0 21 0;
#X connect 50 0 34 0;
#X connect 51 0 49 0;
#X connect 52 0 49 0;
#X connect 53 0 91 0;
#X connect 54 0 91 0;
#X connect 55 0 91 0;
#X connect 56 0 91 0;
#X connect 57 0 91 0;
#X connect 58 0 89 0;
#X connect 58 1 90 0;
#X connect 60 0 63 0;
#X connect 60 1 61 0;
#X connect 61 0 64 1;
#X connect 62 0 64 0;
#X connect 63 0 62 0;
#X connect 64 0 65 0;
#X connect 64 0 70 0;
#X connect 65 0 64 1;
#X connect 66 0 60 0;
#X connect 67 0 68 0;
#X connect 68 0 69 0;
#X connect 70 0 71 0;
#X connect 70 0 109 0;
#X connect 70 0 110 0;
#X connect 70 1 78 0;
#X connect 70 1 80 0;
#X connect 71 0 72 0;
#X connect 71 0 104 0;
#X connect 71 0 114 0;
#X connect 71 0 87 0;
#X connect 71 0 112 0;
#X connect 72 0 67 0;
#X connect 73 0 74 0;
#X connect 74 0 1 0;
#X connect 75 0 77 0;
#X connect 76 0 75 1;
#X connect 77 0 67 0;
#X connect 78 0 75 0;
#X connect 78 1 76 0;
#X connect 79 0 81 0;
#X connect 80 0 83 0;
#X connect 80 1 79 0;
#X connect 81 0 82 0;
#X connect 81 1 82 1;
#X connect 82 0 103 0;
#X connect 83 0 85 0;
#X connect 85 0 67 0;
#X connect 86 0 83 1;
#X connect 87 0 67 0;
#X connect 88 0 19 0;
#X connect 89 0 27 0;
#X connect 89 0 29 0;
#X connect 89 0 90 0;
#X connect 90 0 25 0;
#X connect 90 0 29 1;
#X connect 91 0 10 0;
#X connect 91 0 33 0;
#X connect 92 0 49 0;
#X connect 93 0 49 0;
#X connect 97 0 96 0;
#X connect 98 0 95 0;
#X connect 99 0 98 1;
#X connect 99 0 97 1;
#X connect 100 0 101 0;
#X connect 101 0 102 0;
#X connect 101 0 102 1;
#X connect 102 0 99 0;
#X connect 103 0 86 0;
#X connect 104 0 67 0;
#X connect 105 0 67 0;
#X connect 106 0 21 0;
#X connect 107 0 106 0;
#X connect 108 0 111 0;
#X connect 109 0 108 0;
#X connect 109 1 113 0;
#X connect 110 0 67 0;
#X connect 111 0 67 0;
#X connect 112 0 67 0;
#X connect 112 0 84 0;
#X connect 113 0 108 1;
#X connect 114 0 67 0;
#X connect 115 0 34 0;
#X connect 116 0 34 0;
#X connect 117 0 39 0;
#X connect 117 1 44 0;
#X connect 118 0 105 0;
#X connect 119 0 66 0;
#X connect 120 0 121 0;
#X connect 121 0 3 0;
#X connect 121 0 1 0;
#X restore 49 168 pd faust-additive;
#X obj 52 137 hsl 162 19 0 127 0 0 empty empty empty -2 -10 0 12 #fcfcfc #000000 #000000 0 1;
#N canvas 568 240 450 300 init 1;
#X obj 45 18 loadbang;
#X obj 45 42 del 1000;
#X msg 46 171 \; pd dsp 1;
#X obj 158 237 s metro-control;
#X obj 158 210 i 1;
#X obj 158 137 t b b b;
#X text 174 107 sequencing;
#X obj 194 186 i 1;
#X obj 194 213 s start-seq;
#X obj 313 197 s set-params;
#X obj 45 66 t b b b, f 37;
#X connect 0 0 1 0;
#X connect 1 0 10 0;
#X connect 4 0 3 0;
#X connect 5 0 4 0;
#X connect 5 1 7 0;
#X connect 7 0 8 0;
#X connect 10 0 2 0;
#X connect 10 1 5 0;
#X connect 10 2 9 0;
#X restore 17 74 pd init;
#X obj 406 106 tgl 15 0 empty empty empty 17 7 0 10 #fcfcfc #000000 #000000 0 1;
#X obj 405 179 s ticks;
#X obj 405 146 metro360 120;
#X obj 406 78 r metro-control;
#N canvas 92 117 797 502 sequence 1;
#X obj 145 398 s notes-2-faust;
#X obj 143 108 r ticks;
#X msg 170 135 sync-start;
#X msg 103 134 stop;
#X obj 143 327 pack, f 18;
#X msg 246 86 0 _ _ 1 _ _ 0 _ _ 1 _ _;
#X obj 143 195 seq-module 1 1;
#X msg 143 263 45 \, 50 \, 52 \, 54 \,;
#X msg 239 248 50 \, 55 \, 57 \, 59 \,;
#X msg 203 27 0 _ _ _ 1 _ _ _;
#X obj 143 222 sel 0 1 2;
#X msg 251 217 53 \, 55 \, 61 \, 59 \,;
#X msg 233 54 0 0 _ 0 1 1 _ 1;
#X obj 143 296 makenote 40 300, f 19;
#X obj 59 17 r start-seq;
#X obj 59 41 t b b;
#X connect 1 0 6 0;
#X connect 2 0 6 0;
#X connect 3 0 6 0;
#X connect 4 0 0 0;
#X connect 5 0 6 1;
#X connect 6 0 10 0;
#X connect 7 0 13 0;
#X connect 8 0 13 0;
#X connect 9 0 6 1;
#X connect 10 0 7 0;
#X connect 10 1 8 0;
#X connect 10 2 11 0;
#X connect 11 0 13 0;
#X connect 12 0 6 1;
#X connect 13 0 4 0;
#X connect 13 1 4 1;
#X connect 14 0 15 0;
#X connect 15 0 2 0;
#X connect 15 1 9 0;
#X restore 295 144 pd sequence;
#X msg 314 263 60;
#X obj 313 197 r set-params;
#X obj 85 87 r set-params;
#X msg 85 111 60;
#X connect 3 0 2 0;
#X connect 4 0 2 1;
#X connect 6 0 5 0;
#X connect 8 0 10 0;
#X connect 10 0 9 0;
#X connect 11 0 8 0;
#X connect 13 0 2 2;
#X connect 14 0 13 0;
#X connect 15 0 16 0;
#X connect 16 0 6 0;
